<svg xmlns="http://www.w3.org/2000/svg" version="1.1" width="265" height="165">
<path d="M0 0 C2.359375 0.19140625 2.359375 0.19140625 5 1 C6.328125 3.21484375 6.328125 3.21484375 7.25 5.9375 C7.56453125 6.83339844 7.8790625 7.72929687 8.203125 8.65234375 C8.59757812 9.81443359 8.59757812 9.81443359 9 11 C9.495 11.99 9.495 11.99 10 13 C13.38035912 13.62599243 16.56169885 14 20 14 C20.33 12.68 20.66 11.36 21 10 C24.465 9.505 24.465 9.505 28 9 C28.33 8.01 28.66 7.02 29 6 C35.30959565 4.63910682 35.30959565 4.63910682 38.75 6.4375 C39.4925 6.953125 40.235 7.46875 41 8 C41.99 8 42.98 8 44 8 C44 7.34 44 6.68 44 6 C46.75006608 5.9729797 49.49986546 5.95315117 52.25 5.9375 C53.41595703 5.92493164 53.41595703 5.92493164 54.60546875 5.91210938 C55.73662109 5.90727539 55.73662109 5.90727539 56.890625 5.90234375 C57.92751465 5.89448853 57.92751465 5.89448853 58.98535156 5.88647461 C61 6 61 6 63.02246094 6.53344727 C66.1053374 7.26077775 68.91738434 6.53352963 72 6 C76 11.75 76 11.75 76 14 C76.66 14 77.32 14 78 14 C78 13.34 78 12.68 78 12 C79.299375 11.95875 80.59875 11.9175 81.9375 11.875 C86.95211915 11.36169253 89.95493929 9.35027926 93.859375 6.27734375 C96.4257854 4.74592732 98.06157531 4.75855601 101 5 C102.53445094 8.06890187 101.54984289 10.70094266 101 14 C99.35 14.33 97.7 14.66 96 15 C96.99 17.475 96.99 17.475 98 20 C98.99 19.67 99.98 19.34 101 19 C101.73323796 16.98491642 101.73323796 16.98491642 102 15 C102.99 15 103.98 15 105 15 C105.33 14.01 105.66 13.02 106 12 C106.66 12 107.32 12 108 12 C108 12.99 108 13.98 108 15 C109.216875 14.896875 110.43375 14.79375 111.6875 14.6875 C112.37199219 14.62949219 113.05648437 14.57148438 113.76171875 14.51171875 C116.11836812 14.10083346 116.11836812 14.10083346 118.31640625 12.55859375 C121.58782785 10.6585978 124.54208542 10.08090006 128.25 9.375 C132.44804316 8.894873 132.44804316 8.894873 136 7 C138.3125 6.5625 138.3125 6.5625 141 7 C144.61013384 11.41238581 146.23891455 14.56307164 145.6875 20.1875 C145.3471875 21.5796875 145.3471875 21.5796875 145 23 C144.34 23.33 143.68 23.66 143 24 C142.34786708 26.02463255 142.34786708 26.02463255 142 28 C142.556875 27.443125 143.11375 26.88625 143.6875 26.3125 C144.450625 25.549375 145.21375 24.78625 146 24 C147.11375 22.7625 147.11375 22.7625 148.25 21.5 C153.8992592 16.36430982 159.22681842 14.59193305 166.80078125 14.17578125 C169.17653475 14.07428633 169.17653475 14.07428633 172 13 C172.33 12.01 172.66 11.02 173 10 C180.23553009 8.65100287 180.23553009 8.65100287 183.875 10.3125 C186 12 186 12 188 14 C190.45819827 14.46586475 190.45819827 14.46586475 193.25 14.625 C194.72146484 14.73521484 194.72146484 14.73521484 196.22265625 14.84765625 C199.15435625 15.0084668 202.06450422 15.07933772 205 15 C205.33 14.34 205.66 13.68 206 13 C206.99 12.67 207.98 12.34 209 12 C209.165 11.34 209.33 10.68 209.5 10 C209.665 9.34 209.83 8.68 210 8 C210.99 7.67 211.98 7.34 213 7 C213.73006384 24.66348902 213.73006384 24.66348902 209 33 C208.31163487 34.99263591 207.63718601 36.99041337 207 39 C206.67 39.66 206.34 40.32 206 41 C208.31 40.34 210.62 39.68 213 39 C213.33 37.68 213.66 36.36 214 35 C216.475 34.505 216.475 34.505 219 34 C214.87804878 42.56097561 214.87804878 42.56097561 212 44 C211.34786708 46.02463255 211.34786708 46.02463255 211 48 C210.34 48 209.68 48 209 48 C208.67 50.97 208.34 53.94 208 57 C210.97 57.495 210.97 57.495 214 58 C214 57.34 214 56.68 214 56 C216.475 55.505 216.475 55.505 219 55 C217.52538566 61.07541107 216.06087273 67.09216484 214 73 C213.71125 74.2375 213.4225 75.475 213.125 76.75 C212 80 212 80 210 81.25 C209.34 81.4975 208.68 81.745 208 82 C205.67463937 85.48804095 205.66542102 86.90140754 206 91 C206.33902344 91.61488281 206.67804688 92.22976562 207.02734375 92.86328125 C208.24654514 95.54160719 208.03343057 97.33204906 207.8125 100.25 C207.68738999 106.09889273 209.28643294 109.56464103 213 114 C213.55300781 114.51949219 214.10601562 115.03898437 214.67578125 115.57421875 C215.11277344 116.04472656 215.54976562 116.51523438 216 117 C215.77765522 121.11337834 214.01300853 124.45710499 212 128 C211.34 128.33 210.68 128.66 210 129 C208.63881068 131.07760475 207.90525932 132.31313005 208.25 134.8125 C208.4975 135.534375 208.745 136.25625 209 137 C209.350625 138.2375 209.70125 139.475 210.0625 140.75 C210.371875 141.8225 210.68125 142.895 211 144 C208.63593775 146.19846368 207.38278181 146.9714729 204.1171875 147.21484375 C187.82081686 145.82081686 187.82081686 145.82081686 183 141 C180.48836585 140.54538522 177.97048 140.16474997 175.4453125 139.79296875 C172.43905074 138.81809473 171.55606066 137.70507234 170 135 C170 134.34 170 133.68 170 133 C167.69 133.33 165.38 133.66 163 134 C163 134.66 163 135.32 163 136 C161.35 136 159.7 136 158 136 C158 136.66 158 137.32 158 138 C156.35 137.67 154.7 137.34 153 137 C152.649375 137.763125 152.29875 138.52625 151.9375 139.3125 C149.43665157 142.78141878 146.92653546 143.4574325 143 145 C142.54625 145.47824219 142.0925 145.95648438 141.625 146.44921875 C139.46201035 148.51341801 137.31034404 149.20161318 134.5 150.1875 C133.5409375 150.53167969 132.581875 150.87585938 131.59375 151.23046875 C129 152 129 152 126 152 C126.61590689 145.471387 126.61590689 145.471387 128.375 143.3125 C128.91125 142.879375 129.4475 142.44625 130 142 C131.01800576 140.68036291 132.02248365 139.34990354 133 138 C129.86994506 137.01626845 128.43737563 136.8125533 125.375 138.125 C122.87384577 139.84946843 122.87384577 139.84946843 121.640625 142.47265625 C119.2070588 146.22150705 116.59725942 146.90781089 112.4609375 148.27734375 C105.73667144 149.68139479 98.82371252 149.63236991 92 149 C90.515 148.01 90.515 148.01 89 147 C89 146.01 89 145.02 89 144 C86.56249975 141.31232422 86.56249975 141.31232422 84 139 C81.39390557 139.78572697 78.79023626 140.57828968 76.1875 141.375 C75.44951172 141.59671875 74.71152344 141.8184375 73.95117188 142.046875 C72.88286133 142.37558594 72.88286133 142.37558594 71.79296875 142.7109375 C70.81106567 143.00943604 70.81106567 143.00943604 69.80932617 143.31396484 C67.70644864 144.03415708 67.70644864 144.03415708 65 146 C64.5978125 145.0409375 64.5978125 145.0409375 64.1875 144.0625 C63.11332248 141.66868314 63.11332248 141.66868314 60 141 C59.773125 141.639375 59.54625 142.27875 59.3125 142.9375 C58 145 58 145 55.375 145.75 C54.59125 145.8325 53.8075 145.915 53 146 C53 146.66 53 147.32 53 148 C50.83125748 147.49396008 49.00032373 147.00016187 47 146 C47.185625 145.05125 47.37125 144.1025 47.5625 143.125 C48.28686632 140.10131207 48.28686632 140.10131207 47 138 C47.33 137.01 47.66 136.02 48 135 C44.59919423 135.10407917 44.59919423 135.10407917 41 136 C39.2463436 138.33942344 39.2463436 138.33942344 38 141 C34.76590031 144.11859613 31.25211634 144.79657085 27 146 C26.67 146.66 26.34 147.32 26 148 C20.05808805 149.21263509 13.55186803 150.27593401 8 147.5 C7.34 147.005 6.68 146.51 6 146 C6.33 144.906875 6.66 143.81375 7 142.6875 C8.13086649 139.15421116 8.13086649 139.15421116 8 136 C10.5 133.3125 10.5 133.3125 13 131 C11.01508358 131.26676204 11.01508358 131.26676204 9 132 C8.67 132.99 8.34 133.98 8 135 C7.01 135.309375 6.02 135.61875 5 135.9375 C4.01 136.288125 3.02 136.63875 2 137 C1.6278958 138.32303717 1.29369827 139.65737935 1 141 C-2.29826907 142.78284814 -4.1774751 143 -8 143 C-8.66 142.67 -9.32 142.34 -10 142 C-10.625 139.9375 -10.625 139.9375 -11 138 C-11.33 138.99 -11.66 139.98 -12 141 C-12.66 141.33 -13.32 141.66 -14 142 C-14.268125 142.66 -14.53625 143.32 -14.8125 144 C-16 146 -16 146 -18.625 146.75 C-19.40875 146.8325 -20.1925 146.915 -21 147 C-23.25998595 143.40537669 -23.20868087 140.43404325 -23.125 136.25 C-23.10695313 135.07953125 -23.08890625 133.9090625 -23.0703125 132.703125 C-23.04710937 131.81109375 -23.02390625 130.9190625 -23 130 C-25.31 129.67 -27.62 129.34 -30 129 C-31.16898722 124.90854474 -31.24508059 123.45635697 -29.1875 119.625 C-28.465625 118.75875 -27.74375 117.8925 -27 117 C-26.34 117 -25.68 117 -25 117 C-24.05675742 112.68803391 -23.51958285 108.37934119 -23 104 C-24.32 103.34 -25.64 102.68 -27 102 C-27 101.34 -27 100.68 -27 100 C-27.99 99.67 -28.98 99.34 -30 99 C-30 97.68 -30 96.36 -30 95 C-30.37125 93.6696875 -30.37125 93.6696875 -30.75 92.3125 C-31.11120916 87.52647857 -29.15899741 84.1841035 -27 80 C-26.505 79.01 -26.505 79.01 -26 78 C-25.34 78 -24.68 78 -24 78 C-23.27743171 73.51866426 -23.27743171 73.51866426 -23 69 C-24.485 68.13375 -24.485 68.13375 -26 67.25 C-29 65 -29 65 -29.5 62 C-29.02653632 59.15921791 -28.70946766 57.30778135 -27 55 C-24.875 54.25 -24.875 54.25 -23 54 C-22.505 51.03 -22.505 51.03 -22 48 C-23.65 47.01 -25.3 46.02 -27 45 C-26.47731534 42.23723823 -25.89130413 39.6739124 -25 37 C-24.78196693 35.44146733 -24.59633644 33.87817349 -24.4375 32.3125 C-24.35371094 31.50425781 -24.26992188 30.69601563 -24.18359375 29.86328125 C-24.12300781 29.24839844 -24.06242187 28.63351563 -24 28 C-24.62390625 27.70351563 -25.2478125 27.40703125 -25.890625 27.1015625 C-28.03797092 25.98017074 -29.38095835 24.78094582 -31 23 C-30.1875 20.5625 -30.1875 20.5625 -29 18 C-28.01 17.67 -27.02 17.34 -26 17 C-26 16.01 -26 15.02 -26 14 C-22.34346173 11.56230782 -20.30999899 11.76055561 -16 12 C-15.67 12.33 -15.34 12.66 -15 13 C-12.67182036 13.36760731 -10.3381615 13.70241581 -8 14 C-7.731875 13.29875 -7.46375 12.5975 -7.1875 11.875 C-5.9318551 8.8350176 -4.49764877 5.9272226 -3 3 C-2.34 3 -1.68 3 -1 3 C-0.67 2.01 -0.34 1.02 0 0 Z " fill="#ffff" transform="translate(41,8)"/>
<path d="M0 0 C0 0.66 0 1.32 0 2 C-0.66 2 -1.32 2 -2 2 C-2 2.99 -2 3.98 -2 5 C1.14191424 3.46395304 4.08596738 1.94268841 7 0 C7 2.31 7 4.62 7 7 C1.375 10 1.375 10 -2 10 C-2.33 9.01 -2.66 8.02 -3 7 C-3.99 6.67 -4.98 6.34 -6 6 C-6.33 6.99 -6.66 7.98 -7 9 C-7.33 8.01 -7.66 7.02 -8 6 C-6.68 5.67 -5.36 5.34 -4 5 C-4 3.68 -4 2.36 -4 1 C-2 0 -2 0 0 0 Z " fill="#ffff" transform="translate(107,143)"/>
<path d="M0 0 C2 1 4 2 6 3 C6 3.66 6 4.32 6 5 C5.34 5 4.68 5 4 5 C4.66 6.65 5.32 8.3 6 10 C7.32 9.67 8.64 9.34 10 9 C9.67 9.66 9.34 10.32 9 11 C7.68 11 6.36 11 5 11 C5 11.66 5 12.32 5 13 C2.83125748 12.49396008 1.00032373 12.00016187 -1 11 C-0.814375 10.05125 -0.62875 9.1025 -0.4375 8.125 C0.28686632 5.10131207 0.28686632 5.10131207 -1 3 C-0.67 2.01 -0.34 1.02 0 0 Z " fill="#ffff" transform="translate(89,143)"/>
<path d="M0 0 C-0.64669414 1.34313399 -1.31903578 2.67391178 -2 4 C-2.6496875 5.299375 -2.6496875 5.299375 -3.3125 6.625 C-5.28842651 9.4059336 -6.77947903 10.04254782 -10 11 C-10.33 10.34 -10.66 9.68 -11 9 C-12.32 9 -13.64 9 -15 9 C-14.67 7.68 -14.34 6.36 -14 5 C-13.67 5.66 -13.34 6.32 -13 7 C-10.69 6.34 -8.38 5.68 -6 5 C-5.87625 4.360625 -5.7525 3.72125 -5.625 3.0625 C-5.41875 2.381875 -5.2125 1.70125 -5 1 C-3 0 -3 0 0 0 Z " fill="#ffff" transform="translate(260,42)"/>
<path d="M0 0 C5.61 0 11.22 0 17 0 C16.67 0.99 16.34 1.98 16 3 C14.25034642 3.05429959 12.50020213 3.09292823 10.75 3.125 C9.77546875 3.14820313 8.8009375 3.17140625 7.796875 3.1953125 C4.9803502 2.99862781 3.39050964 2.44568916 1 1 C1 1.99 1 2.98 1 4 C-0.98 4.33 -2.96 4.66 -5 5 C-4.67 4.01 -4.34 3.02 -4 2 C-2.68 2 -1.36 2 0 2 C0 1.34 0 0.68 0 0 Z " fill="#ffff" transform="translate(85,14)"/>
<path d="M0 0 C-1.28965176 1.37562854 -2.62689293 2.70766393 -4 4 C-4.66 4 -5.32 4 -6 4 C-6 3.34 -6 2.68 -6 2 C-6.66 1.67 -7.32 1.34 -8 1 C-7.67 2.32 -7.34 3.64 -7 5 C-7.66 5 -8.32 5 -9 5 C-9.33 5.66 -9.66 6.32 -10 7 C-10 6.34 -10 5.68 -10 5 C-11.32 4.34 -12.64 3.68 -14 3 C-13.34 3 -12.68 3 -12 3 C-11.67 2.01 -11.34 1.02 -11 0 C-6.94952424 -1.35015859 -4.2079832 -0.62084998 0 0 Z " fill="#ffff" transform="translate(225,18)"/>
<path d="M0 0 C0.54140625 0.48082031 1.0828125 0.96164063 1.640625 1.45703125 C4.47897288 3.31323558 6.38792626 3.48737656 9.75 3.6875 C11.22726563 3.78611328 11.22726563 3.78611328 12.734375 3.88671875 C13.85585937 3.94279297 13.85585937 3.94279297 15 4 C14.01 4.495 14.01 4.495 13 5 C13 5.66 13 6.32 13 7 C3.82713348 6.64989059 3.82713348 6.64989059 0.375 3.9375 C-0.305625 2.9784375 -0.305625 2.9784375 -1 2 C-0.67 1.34 -0.34 0.68 0 0 Z " fill="#ffff" transform="translate(225,19)"/>
<path d="M0 0 C0.66 0 1.32 0 2 0 C2 0.99 2 1.98 2 3 C3.32 3.33 4.64 3.66 6 4 C4 6 4 6 0.375 6.125 C-0.73875 6.08375 -1.8525 6.0425 -3 6 C-3.33 6.99 -3.66 7.98 -4 9 C-4.99 8.67 -5.98 8.34 -7 8 C-6.34 7.67 -5.68 7.34 -5 7 C-4.34786708 4.97536745 -4.34786708 4.97536745 -4 3 C-3.01 3 -2.02 3 -1 3 C-0.67 2.01 -0.34 1.02 0 0 Z " fill="#ffff" transform="translate(147,20)"/>
<path d="M0 0 C0.89203125 0.01804687 1.7840625 0.03609375 2.703125 0.0546875 C3.71632812 0.08949219 3.71632812 0.08949219 4.75 0.125 C4.09 1.445 3.43 2.765 2.75 4.125 C-0.88 4.125 -4.51 4.125 -8.25 4.125 C-8.58 3.465 -8.91 2.805 -9.25 2.125 C-6.03817851 0.21891902 -3.71117397 -0.09766247 0 0 Z " fill="#ffff" transform="translate(204.25,22.875)"/>
<path d="M0 0 C-0.33 1.32 -0.66 2.64 -1 4 C-2.98 4.33 -4.96 4.66 -7 5 C-7.33 5.99 -7.66 6.98 -8 8 C-8.99 7.67 -9.98 7.34 -11 7 C-7.75404061 2.5947694 -5.63852303 0 0 0 Z " fill="#ffff" transform="translate(37,141)"/>
<path d="M0 0 C0.66 0.66 1.32 1.32 2 2 C1.625 5.125 1.625 5.125 1 8 C-0.32 8.33 -1.64 8.66 -3 9 C-3.66 7.35 -4.32 5.7 -5 4 C-4.360625 3.71125 -3.72125 3.4225 -3.0625 3.125 C-0.84793921 2.17176549 -0.84793921 2.17176549 0 0 Z " fill="#ffff" transform="translate(98,144)"/>
<path d="M0 0 C2 1 2 1 5 3 C3.80100302 6.0831351 2.52299523 9.06279492 1 12 C0.34 11.34 -0.32 10.68 -1 10 C-0.34 8.02 0.32 6.04 1 4 C-0.32 3.01 -1.64 2.02 -3 1 C-2.01 0.67 -1.02 0.34 0 0 Z " fill="#ffff" transform="translate(18,52)"/>
<path d="M0 0 C0 3.96 0 7.92 0 12 C-0.99 11.67 -1.98 11.34 -3 11 C-4.36176066 4.34250344 -4.36176066 4.34250344 -3 1 C-1 0 -1 0 0 0 Z " fill="#ffff" transform="translate(254,15)"/>
<path d="M0 0 C0.66 0 1.32 0 2 0 C3.125 3.75 3.125 3.75 2 6 C1.34 6 0.68 6 0 6 C-0.33 7.32 -0.66 8.64 -1 10 C-1.66 9.34 -2.32 8.68 -3 8 C-2.01 6.68 -1.02 5.36 0 4 C-1.65 3.67 -3.3 3.34 -5 3 C-4.360625 2.690625 -3.72125 2.38125 -3.0625 2.0625 C-1.06389179 1.1654837 -1.06389179 1.1654837 0 0 Z " fill="#ffff" transform="translate(54,135)"/>
<path d="M0 0 C0 0.99 0 1.98 0 3 C-1.32 3 -2.64 3 -4 3 C-4 2.34 -4 1.68 -4 1 C-7.37088267 3.27415287 -7.37088267 3.27415287 -9 7 C-11.0625 7.6875 -11.0625 7.6875 -13 8 C-12.67 7.01 -12.34 6.02 -12 5 C-11.34 5 -10.68 5 -10 5 C-10 4.01 -10 3.02 -10 2 C-6.3558226 -0.4294516 -4.28758728 -0.16179575 0 0 Z " fill="#ffff" transform="translate(25,20)"/>
<path d="M0 0 C0.66 0 1.32 0 2 0 C2.36923077 7.38461538 2.36923077 7.38461538 0.5 10.5 C0.005 10.995 -0.49 11.49 -1 12 C-1.66 9.69 -2.32 7.38 -3 5 C-2.01 4.34 -1.02 3.68 0 3 C0 2.01 0 1.02 0 0 Z " fill="#ffff" transform="translate(248,35)"/>
<path d="M0 0 C1.2065625 0.0309375 1.2065625 0.0309375 2.4375 0.0625 C2.4375 1.0525 2.4375 2.0425 2.4375 3.0625 C2.1075 2.4025 1.7775 1.7425 1.4375 1.0625 C0.7775 1.0625 0.1175 1.0625 -0.5625 1.0625 C-0.5625 1.7225 -0.5625 2.3825 -0.5625 3.0625 C-1.34625 3.18625 -2.13 3.31 -2.9375 3.4375 C-5.70307822 3.85367993 -5.70307822 3.85367993 -7.5625 6.0625 C-7.5625 5.4025 -7.5625 4.7425 -7.5625 4.0625 C-9.2125 4.0625 -10.8625 4.0625 -12.5625 4.0625 C-12.5625 3.7325 -12.5625 3.4025 -12.5625 3.0625 C-11.60537109 2.86333984 -11.60537109 2.86333984 -10.62890625 2.66015625 C-9.80261719 2.48355469 -8.97632813 2.30695312 -8.125 2.125 C-7.30128906 1.95097656 -6.47757813 1.77695312 -5.62890625 1.59765625 C-2.92413664 0.89717716 -2.95121226 0.07198079 0 0 Z " fill="#ffff" transform="translate(179.5625,14.9375)"/>
<path d="M0 0 C0.99 0.66 1.98 1.32 3 2 C2.01 2.495 2.01 2.495 1 3 C-0.88186002 6.0318856 -1 7.24517355 -1 11 C-1.99 10.67 -2.98 10.34 -4 10 C-4 8.35 -4 6.7 -4 5 C-3.34 5 -2.68 5 -2 5 C-1.7834375 4.0409375 -1.7834375 4.0409375 -1.5625 3.0625 C-1 1 -1 1 0 0 Z " fill="#ffff" transform="translate(250,134)"/>
<path d="M0 0 C1.65 0 3.3 0 5 0 C5 1.65 5 3.3 5 5 C4.01 5.33 3.02 5.66 2 6 C2 7.65 2 9.3 2 11 C1.34 10.67 0.68 10.34 0 10 C0.29296875 7.98177083 0.5859375 5.96354167 0.87890625 3.9453125 C1.1684297 1.91859333 1.1684297 1.91859333 0 0 Z " fill="#ffff" transform="translate(17,110)"/>
<path d="M0 0 C2.31 0.66 4.62 1.32 7 2 C7 2.33 7 2.66 7 3 C2.2250791 3.95498418 -2.15139376 4.24243031 -7 4 C-7.66 3.34 -8.32 2.68 -9 2 C-8.01 1.67 -7.02 1.34 -6 1 C-6 1.66 -6 2.32 -6 3 C-3.52733235 2.65555119 -3.52733235 2.65555119 -1 2 C-0.67 1.34 -0.34 0.68 0 0 Z " fill="#ffff" transform="translate(59,153)"/>
<path d="M0 0 C1.65 0.99 3.3 1.98 5 3 C4.67 4.98 4.34 6.96 4 9 C3.34 9 2.68 9 2 9 C2 7.02 2 5.04 2 3 C1.01 2.67 0.02 2.34 -1 2 C-0.67 1.34 -0.34 0.68 0 0 Z " fill="#ffff" transform="translate(15,33)"/>
<path d="M0 0 C0.66 0.66 1.32 1.32 2 2 C4.57061311 2.64767793 4.57061311 2.64767793 7 3 C7 3.33 7 3.66 7 4 C5.35 4 3.7 4 2 4 C2 4.66 2 5.32 2 6 C0.68 5.67 -0.64 5.34 -2 5 C-1.125 1.125 -1.125 1.125 0 0 Z " fill="#ffff" transform="translate(197,140)"/>
<path d="M0 0 C1 3 1 3 0 7 C-2.97 7 -5.94 7 -9 7 C-9 6.34 -9 5.68 -9 5 C-6.69 5 -4.38 5 -2 5 C-1.34 3.35 -0.68 1.7 0 0 Z " fill="#ffff" transform="translate(35,17)"/>
<path d="M0 0 C1.32 1.32 2.64 2.64 4 4 C3.01 4.495 3.01 4.495 2 5 C1.67 5.66 1.34 6.32 1 7 C1 6.34 1 5.68 1 5 C-0.32 4.34 -1.64 3.68 -3 3 C-2.34 3 -1.68 3 -1 3 C-0.67 2.01 -0.34 1.02 0 0 Z " fill="#ffff" transform="translate(214,18)"/>
<path d="M0 0 C0.99 1.32 1.98 2.64 3 4 C2.34 5.32 1.68 6.64 1 8 C0.34 8 -0.32 8 -1 8 C-1.33 8.66 -1.66 9.32 -2 10 C-1.33333333 6.66666667 -0.66666667 3.33333333 0 0 Z " fill="#ffff" transform="translate(12,91)"/>
<path d="M0 0 C2.31 0.33 4.62 0.66 7 1 C6.67 1.66 6.34 2.32 6 3 C4.02 3 2.04 3 0 3 C0 2.01 0 1.02 0 0 Z " fill="#ffff" transform="translate(130,23)"/>
<path d="M0 0 C1.65 0 3.3 0 5 0 C5 0.99 5 1.98 5 3 C2.69 3.66 0.38 4.32 -2 5 C-1.34 3.35 -0.68 1.7 0 0 Z " fill="#ffff" transform="translate(70,14)"/>
<path d="M0 0 C1.32 0 2.64 0 4 0 C4 0.66 4 1.32 4 2 C3.34 2 2.68 2 2 2 C1.67 3.32 1.34 4.64 1 6 C0.01 5.67 -0.98 5.34 -2 5 C-2 4.34 -2 3.68 -2 3 C-1.34 3 -0.68 3 0 3 C0 2.01 0 1.02 0 0 Z " fill="#ffff" transform="translate(248,54)"/>
<path d="M0 0 C0.99 0 1.98 0 3 0 C3 0.99 3 1.98 3 3 C2.01 2.67 1.02 2.34 0 2 C0 1.34 0 0.68 0 0 Z " fill="#ffff" transform="translate(28,150)"/>
<path d="" fill="#FFFFFF" transform="translate(0,0)"/>
<path d="" fill="#FFFFFF" transform="translate(0,0)"/>
<path d="" fill="#FFFFFF" transform="translate(0,0)"/>
<path d="" fill="#FFFFFF" transform="translate(0,0)"/>
<path d="" fill="#FFFFFF" transform="translate(0,0)"/>
<path d="" fill="#FFFFFF" transform="translate(0,0)"/>
<path d="" fill="#FFFFFF" transform="translate(0,0)"/>
<path d="" fill="#FFFFFF" transform="translate(0,0)"/>
<path d="" fill="#FFFFFF" transform="translate(0,0)"/>
<path d="" fill="#FFFFFF" transform="translate(0,0)"/>
<path d="" fill="#FFFFFF" transform="translate(0,0)"/>
<path d="" fill="#FEFFFF" transform="translate(0,0)"/>
<path d="" fill="#FFFFFF" transform="translate(0,0)"/>
<path d="" fill="#FFFFFF" transform="translate(0,0)"/>
<path d="" fill="#FFFFFF" transform="translate(0,0)"/>
<path d="" fill="#FFFFFF" transform="translate(0,0)"/>
<path d="" fill="#FFFFFF" transform="translate(0,0)"/>
<path d="" fill="#FFFFFF" transform="translate(0,0)"/>
</svg>